<svg xmlns="http://www.w3.org/2000/svg" xmlns:xlink="http://www.w3.org/1999/xlink" width="500" zoomAndPan="magnify" viewBox="0 0 375 299.999988" height="400" preserveAspectRatio="xMidYMid meet" version="1.0"><defs><clipPath id="69fb90fd52"><path d="M 10.136719 2.789062 L 364.886719 2.789062 L 364.886719 87 L 10.136719 87 Z M 10.136719 2.789062 " clip-rule="nonzero"/></clipPath><clipPath id="c460a7711e"><path d="M 10.140625 52.0625 L 364.886719 52.0625 L 364.886719 297.535156 L 10.140625 297.535156 Z M 10.140625 52.0625 " clip-rule="nonzero"/></clipPath></defs><g clip-path="url(#69fb90fd52)"><path fill="#fbb03b" d="M 10.140625 86.539062 L 10.140625 34.746094 C 10.140625 17.097656 24.429688 2.789062 42.0625 2.789062 L 110.640625 2.789062 C 117.398438 2.789062 123.980469 4.9375 129.441406 8.921875 L 159.300781 30.707031 L 332.964844 30.707031 C 350.59375 30.707031 364.886719 45.015625 364.886719 62.664062 L 364.886719 86.539062 L 10.140625 86.539062 " fill-opacity="1" fill-rule="nonzero"/></g><g clip-path="url(#c460a7711e)"><path fill="#ffcc00" d="M 332.964844 52.132812 L 42.0625 52.132812 C 24.429688 52.132812 10.140625 66.4375 10.140625 84.085938 L 10.140625 265.578125 C 10.140625 283.226562 24.429688 297.535156 42.0625 297.535156 L 332.964844 297.535156 C 350.59375 297.535156 364.886719 283.226562 364.886719 265.578125 L 364.886719 84.085938 C 364.886719 66.4375 350.59375 52.132812 332.964844 52.132812 " fill-opacity="1" fill-rule="nonzero"/></g></svg>